<svg width="168" height="70" viewBox="0 0 168 70" fill="none" xmlns="http://www.w3.org/2000/svg">
<rect x="0.5" y="0.5" width="167" height="69" rx="4.5" stroke="#8A38F5" stroke-dasharray="10 5"/>
<path d="M30.3931 25.2838C30.3931 25.2079 30.3929 25.1154 30.3976 25.0418L30.3982 25.0321L30.3992 25.0224L30.3994 25.0213C30.4109 24.9187 30.4155 24.8747 30.4165 24.8453L30.4167 24.838L30.4172 24.8307C30.422 24.7597 30.4323 24.6867 30.4405 24.6273C30.4494 24.5633 30.457 24.5075 30.4618 24.4506C30.4624 24.4426 30.4631 24.4338 30.4638 24.4244C30.0645 24.5819 29.5015 24.708 28.9271 24.801C28.3434 24.8955 27.7253 24.9593 27.2119 24.9851C26.9953 24.996 26.7941 25.0002 26.6201 24.9967C26.6218 25.0254 26.6205 25.0547 26.6156 25.0842C26.4934 25.8248 26.3326 26.5507 26.1467 27.2651C26.2848 27.0929 26.4346 26.9192 26.5933 26.7509C26.9329 26.3908 27.3213 26.0463 27.7291 25.7945C28.1335 25.5448 28.5847 25.3693 29.0403 25.3918C29.4436 25.4118 29.9462 25.4511 30.4732 25.5196C30.4232 25.4556 30.3931 25.3734 30.3931 25.2838ZM32.0322 31.3641C31.1679 31.1274 30.3821 31.0427 29.8018 31.3113C29.7984 31.3135 29.7886 31.32 29.7706 31.3332C29.7414 31.3549 29.7021 31.3859 29.6529 31.4265C29.5548 31.5074 29.4269 31.6187 29.2789 31.7521C28.9834 32.0185 28.6157 32.366 28.2607 32.7198C27.9046 33.0747 27.5672 33.4301 27.3291 33.7133C27.2207 33.8423 27.1398 33.9482 27.0879 34.0274C27.1257 34.0707 27.1808 34.1197 27.2591 34.1723C27.4004 34.2671 27.5853 34.3525 27.794 34.4282C28.2148 34.5809 28.6615 34.6708 28.9372 34.7383C29.2662 34.8188 29.576 34.9334 29.8487 35.0294C30.1298 35.1284 30.3709 35.2075 30.6 35.2418C30.8227 35.2751 31.0221 35.2639 31.2176 35.1883C31.4142 35.1123 31.6328 34.961 31.8774 34.6713C32.0802 34.4312 32.3508 34.1632 32.6234 33.8903C32.9015 33.6118 33.1902 33.3199 33.4514 33.0148C33.7366 32.6817 33.966 32.3582 34.1143 32.0471C33.8543 31.9679 33.5712 31.8686 33.2827 31.7678C32.8797 31.6271 32.4571 31.4805 32.0322 31.3641ZM30.7558 33.5428C30.9396 33.5428 31.0935 33.5563 31.2163 33.5874C31.2781 33.603 31.3436 33.626 31.4048 33.662C31.4654 33.6978 31.5384 33.7565 31.5887 33.851C31.6431 33.9532 31.6537 34.0649 31.6332 34.165C31.6145 34.2565 31.5729 34.3264 31.5382 34.3729C31.4703 34.4637 31.3804 34.5294 31.3073 34.5734C31.229 34.6204 31.1415 34.6595 31.0555 34.6863C30.9741 34.7116 30.8695 34.7336 30.7636 34.7247C30.6708 34.717 30.4543 34.6689 30.3699 34.4271C30.333 34.3211 30.3403 34.2204 30.3571 34.1456C30.3699 34.0886 30.3905 34.0359 30.4137 33.9886C30.4089 33.9642 30.4064 33.9389 30.4064 33.913C30.4064 33.7086 30.5628 33.5428 30.7558 33.5428ZM28.7625 33.0713C28.8653 33.0375 28.9776 33.0302 29.0687 33.0326C29.1626 33.035 29.266 33.0487 29.3578 33.0771C29.4027 33.091 29.4601 33.113 29.5153 33.1496C29.5605 33.1795 29.658 33.2546 29.6978 33.3956L29.7015 33.4094L29.706 33.4285C29.727 33.5245 29.7295 33.6326 29.6948 33.7408C29.6572 33.8583 29.5855 33.9448 29.5066 34.0022C29.3623 34.1072 29.1941 34.1187 29.0793 34.1073C28.9673 34.0961 28.8105 34.0534 28.6934 33.9348C28.6685 33.9096 28.6428 33.8779 28.6204 33.8399C28.512 33.7815 28.4362 33.6649 28.4297 33.5289L28.4292 33.5099C28.4292 33.3601 28.4995 33.2477 28.5731 33.1797C28.6393 33.1187 28.712 33.0879 28.7625 33.0713ZM29.1276 33.5235C29.1278 33.5189 29.1279 33.5144 29.1279 33.5099C29.1279 33.5144 29.1278 33.519 29.1276 33.5235ZM28.6718 26.1694C28.488 26.2164 28.2897 26.3054 28.0808 26.4343C27.741 26.6441 27.3999 26.943 27.0875 27.2743C26.7762 27.6045 26.5015 27.9581 26.2934 28.2689C26.0785 28.5898 25.9552 28.8347 25.9203 28.9511C25.8581 29.1587 25.8488 29.4846 25.9002 29.9158C25.9505 30.3372 26.0533 30.8191 26.1827 31.316C26.36 31.9966 26.5818 32.6854 26.7738 33.2612C26.7848 33.2478 26.796 33.2343 26.8074 33.2208C27.0656 32.9136 27.4202 32.541 27.782 32.1804C28.1451 31.8186 28.5214 31.4629 28.8261 31.1881C28.9783 31.0509 29.1146 30.9321 29.2237 30.8422C29.278 30.7974 29.3279 30.7577 29.371 30.7259C29.4075 30.6989 29.4594 30.6621 29.511 30.6378C29.5786 30.6061 29.6475 30.578 29.7175 30.5533C29.5099 29.8557 29.4055 28.997 29.2781 28.232C29.1407 27.4067 28.9763 26.6798 28.6718 26.1694ZM32.125 32.1276C32.1977 32.1299 32.2676 32.1373 32.3319 32.1524C32.3923 32.1667 32.4705 32.1929 32.542 32.2482C32.6202 32.3088 32.7036 32.4173 32.7112 32.5726C32.7182 32.7138 32.6581 32.8185 32.6151 32.8749C32.5321 32.9837 32.4136 33.0468 32.3238 33.0819C32.2233 33.1214 32.1052 33.1467 31.9821 33.1478C31.9011 33.1486 31.753 33.1318 31.6411 33.0019C31.5129 32.8532 31.5274 32.6735 31.5624 32.5694C31.6093 32.4296 31.7167 32.319 31.8445 32.2629C31.9109 32.1773 32.0125 32.1241 32.125 32.1276ZM32.0664 32.9602C32.0694 32.9597 32.0723 32.9591 32.0751 32.9586C32.0722 32.9591 32.0693 32.9597 32.0664 32.9602ZM30.0021 31.7541C30.1029 31.6508 30.238 31.5956 30.3816 31.6124C30.5155 31.628 30.6189 31.7015 30.6852 31.777C30.7496 31.8505 30.8096 31.9608 30.8171 32.0956C30.8258 32.2537 30.7565 32.4257 30.5947 32.5182C30.5144 32.5641 30.4288 32.5807 30.3707 32.5871C30.3087 32.594 30.2321 32.5942 30.1569 32.5767C30.1203 32.5682 30.0639 32.5511 30.0068 32.5124C29.9488 32.4731 29.8595 32.3889 29.8343 32.2441C29.8093 32.1009 29.8629 31.9889 29.9024 31.9298C29.9032 31.9286 29.904 31.9274 29.9048 31.9263C29.9199 31.8671 29.9491 31.8111 29.9925 31.7643L30.0021 31.7541ZM30.4358 32.4007C30.4344 32.4017 30.4347 32.4016 30.4363 32.4003C30.4361 32.4004 30.436 32.4005 30.4358 32.4007ZM27.2657 30.5863C27.4098 30.5898 27.6053 30.6337 27.7274 30.8176C27.8492 31.0012 27.8169 31.202 27.7794 31.3166C27.7394 31.4389 27.6692 31.5475 27.5967 31.6328C27.5228 31.7196 27.4301 31.8017 27.3263 31.8607C27.2286 31.9163 27.0822 31.9731 26.9184 31.9433C26.8318 31.9275 26.7468 31.8882 26.6735 31.8218C26.6015 31.7566 26.5523 31.676 26.5199 31.5935C26.4582 31.4362 26.4485 31.2499 26.4642 31.0561C26.4699 30.9859 26.4938 30.9219 26.5306 30.8689C26.5719 30.7836 26.6444 30.7152 26.7377 30.6845C26.9379 30.6186 27.1148 30.5826 27.2657 30.5863ZM29.4593 26.1598C29.7177 26.7497 29.8566 27.4453 29.9662 28.1033C30.111 28.9731 30.2067 29.7824 30.4092 30.4136C31.0025 30.3696 31.6295 30.489 32.207 30.6472C32.6572 30.7705 33.1006 30.9246 33.5013 31.0645C33.7961 31.1675 34.0636 31.2611 34.3011 31.3336C34.3015 31.3038 34.3009 31.2742 34.2992 31.2448C34.2677 30.7136 34.1042 30.029 33.8998 29.3198C33.7987 28.9688 33.6899 28.6193 33.586 28.287C33.4827 27.9567 33.3834 27.6408 33.3042 27.3647C33.2676 27.2371 33.136 27.0744 32.8324 26.9045C32.5392 26.7405 32.1442 26.603 31.6931 26.4916C30.9653 26.3119 30.1374 26.211 29.4593 26.1598ZM27.1188 28.8817C27.2399 28.8332 27.369 28.8316 27.4634 28.8393C27.5649 28.8476 27.6689 28.8705 27.7592 28.9029C27.8046 28.9192 27.8528 28.94 27.8985 28.9667C27.9392 28.9904 28.0019 29.0323 28.0539 29.1004C28.1247 29.1931 28.1823 29.3157 28.1827 29.4614C28.1831 29.6097 28.1241 29.7295 28.0543 29.8128C27.928 29.9635 27.7448 30.0274 27.6077 30.0468C27.4827 30.0646 27.2587 30.0638 27.0933 29.9014C27.0229 29.8322 26.9747 29.7433 26.9542 29.6441C26.87 29.5804 26.8136 29.4782 26.808 29.3618L26.8076 29.3427C26.8076 29.2309 26.8425 29.1227 26.9117 29.0346C26.9763 28.9525 27.0553 28.9071 27.1188 28.8817ZM31.6696 27.6932C31.7386 27.6703 31.811 27.6712 31.8773 27.693C32.0497 27.724 32.1866 27.8283 32.2801 27.9271C32.4005 28.0543 32.4918 28.2149 32.5534 28.3669C32.6143 28.517 32.6588 28.6899 32.6609 28.8518C32.6624 28.9736 32.635 29.2992 32.3329 29.4035C31.8541 29.5688 31.4494 29.2569 31.28 28.9155C31.192 28.7381 31.1462 28.5191 31.189 28.2975C31.2012 28.2344 31.2202 28.1735 31.2457 28.1157C31.2477 28.005 31.2961 27.8964 31.3864 27.8252C31.4708 27.7586 31.5663 27.7121 31.6696 27.6932ZM22.8128 22.1371C22.7084 22.2805 22.6195 22.4402 22.5482 22.6126C22.2592 23.3122 21.98 24.0887 21.8241 24.7605C21.7459 25.097 21.7021 25.3934 21.6989 25.6333C21.6956 25.8816 21.7367 26.0203 21.7802 26.0869C22.2489 26.8053 22.9188 27.465 23.6375 28.0918C23.9958 28.4043 24.3602 28.7034 24.7144 28.997C24.7663 29.04 24.818 29.0829 24.8693 29.1256C25.3081 27.7585 25.6923 26.3807 25.9274 24.9566C25.9315 24.9316 25.9379 24.9076 25.9463 24.8848C25.7434 24.789 25.512 24.6156 25.2843 24.4263C25.0135 24.2011 24.7074 23.9182 24.3948 23.6219C23.8491 23.1047 23.2864 22.5501 22.8128 22.1371ZM27.8843 27.1938C27.9989 27.1206 28.1481 27.1208 28.2648 27.2072C28.4592 27.3511 28.6115 27.601 28.5455 27.8938C28.4823 28.1745 28.2534 28.3325 28.0294 28.3904C27.8378 28.4399 27.6633 28.3695 27.5486 28.2415C27.4479 28.1291 27.4039 27.9879 27.3908 27.8703C27.3777 27.7517 27.3905 27.6075 27.4577 27.4762C27.5319 27.3313 27.6733 27.2083 27.8701 27.1944L27.8843 27.1938ZM23.4325 24.8094C23.5908 24.7211 23.7893 24.774 23.8883 24.9362C23.9033 24.9608 23.9172 24.9853 23.9301 25.0098C24.0141 25.1087 24.0897 25.245 24.1121 25.3903C24.1254 25.4762 24.1313 25.6533 23.9991 25.7961C23.8652 25.9408 23.6923 25.9395 23.5958 25.924L23.5855 25.9224C23.4557 25.9267 23.3295 25.8741 23.2369 25.784C23.0854 25.6367 23.0415 25.4197 23.0855 25.2129L23.0886 25.1994C23.1201 25.0651 23.2117 24.8605 23.4325 24.8094ZM27.586 20.7541C27.186 20.71 26.5326 20.7738 25.7959 20.9144C25.0682 21.0533 24.2936 21.2602 23.6656 21.4819C23.5515 21.5222 23.4428 21.575 23.3404 21.639C23.8174 22.0619 24.365 22.6003 24.8606 23.07C25.1716 23.3648 25.4637 23.6342 25.7156 23.8437C25.9788 24.0626 26.1619 24.1844 26.2626 24.2222C26.2631 24.2223 26.2697 24.2246 26.2847 24.2279C26.3001 24.2312 26.3207 24.2348 26.3471 24.2383C26.4002 24.2453 26.4689 24.2508 26.5528 24.2541C26.7205 24.2606 26.9343 24.2578 27.1788 24.2455C27.6675 24.2209 28.2614 24.1597 28.8216 24.069C29.3872 23.9774 29.8963 23.8594 30.2266 23.728C30.3038 23.6973 30.3624 23.6691 30.4059 23.6452C30.0687 23.1255 29.6443 22.4601 29.1617 21.8869C28.6197 21.2432 28.078 20.8084 27.586 20.7541ZM27.697 22.4786C27.8579 22.2578 28.1149 22.2338 28.2564 22.2415C28.4035 22.2495 28.5921 22.2992 28.7296 22.4216L28.7428 22.4336L28.7521 22.4428C28.8474 22.5385 28.8965 22.6755 28.8767 22.8192C28.8603 22.938 28.8021 23.0217 28.7689 23.0631C28.701 23.1478 28.6125 23.2091 28.5506 23.2395C28.4622 23.2829 28.3685 23.2961 28.2952 23.2975C28.219 23.2989 28.1303 23.2883 28.0448 23.2557C27.9699 23.2272 27.8403 23.1591 27.7693 23.0052C27.7661 23.0028 27.763 23.0004 27.7599 22.9979C27.6072 22.873 27.579 22.6404 27.697 22.4786ZM25.4342 21.3759C25.5137 21.3791 25.5969 21.3933 25.673 21.4168C25.7174 21.4305 25.774 21.4518 25.8306 21.4852C26.0067 21.5402 26.1377 21.6809 26.2047 21.803C26.2462 21.8784 26.2976 22.0074 26.2741 22.1595C26.2444 22.3515 26.1125 22.4806 25.9585 22.5276C25.6606 22.6186 25.388 22.457 25.2527 22.3578C25.1731 22.2994 25.1043 22.2357 25.0527 22.1799C25.0272 22.1523 25.0019 22.1224 24.9802 22.0921C24.9696 22.0774 24.956 22.0573 24.9431 22.0335C24.9366 22.0215 24.9039 21.9629 24.8944 21.882C24.8817 21.7736 24.907 21.6623 24.972 21.5704C25.0305 21.4877 25.1044 21.4442 25.1568 21.4214C25.2573 21.3775 25.3623 21.373 25.4342 21.3759ZM31.0918 25.2838C31.0918 25.4098 31.0324 25.5209 30.9417 25.5878C31.249 25.6375 31.557 25.6977 31.8517 25.7705C32.3295 25.8885 32.7899 26.0434 33.1586 26.2497C33.517 26.4502 33.854 26.7358 33.9727 27.1493C34.0488 27.4145 34.1448 27.7202 34.2492 28.0541C34.353 28.386 34.4642 28.7432 34.5681 29.1035C34.7736 29.8169 34.9595 30.5735 34.9965 31.1984C35.0484 32.0741 34.5145 32.8751 33.9689 33.5124C33.6873 33.8412 33.3804 34.151 33.1033 34.4285C32.8207 34.7115 32.5765 34.9539 32.3982 35.1651C32.0953 35.5238 31.7849 35.7572 31.4571 35.8839C31.1282 36.0111 30.808 36.0207 30.5023 35.975C30.203 35.9302 29.9068 35.8301 29.6283 35.7321C29.3412 35.631 29.069 35.5305 28.7799 35.4597C28.5396 35.4009 28.0334 35.2978 27.5676 35.1288C27.333 35.0437 27.0912 34.9361 26.8853 34.7978C26.7323 34.6951 26.5789 34.562 26.4693 34.3897C26.4183 34.3477 26.3777 34.2904 26.3545 34.2211C26.1422 33.585 25.7767 32.5399 25.5092 31.513C25.4138 31.1469 25.3296 30.7777 25.2686 30.4255C25.2647 30.4222 25.2608 30.4189 25.257 30.4154C24.9668 30.1488 24.6369 29.8727 24.2841 29.5803C23.9334 29.2898 23.5603 28.9834 23.1935 28.6636C22.4621 28.0257 21.7309 27.3133 21.2055 26.5081C21.0405 26.2552 20.9962 25.932 21.0003 25.6229C21.0045 25.3053 21.0608 24.9487 21.1456 24.5837C21.3153 23.8524 21.6123 23.0317 21.9082 22.3156C22.1983 21.6136 22.7317 21.0312 23.4447 20.7794C24.1074 20.5455 24.9147 20.3302 25.672 20.1857C26.4203 20.0429 27.1551 19.9621 27.6584 20.0176C28.4347 20.1033 29.1316 20.7391 29.683 21.394C30.2478 22.0647 30.7373 22.8528 31.074 23.3677C31.1094 23.4217 31.138 23.4834 31.1549 23.5507C31.1925 23.6129 31.2131 23.6875 31.2098 23.7669C31.2017 23.9586 31.1702 24.3682 31.1578 24.5161C31.151 24.5973 31.1403 24.6735 31.1319 24.7346C31.123 24.7985 31.1171 24.8429 31.1143 24.8812C31.1116 24.9449 31.1033 25.0191 31.0943 25.0989C31.092 25.142 31.0918 25.2035 31.0918 25.2838Z" fill="white"/>
<path d="M60.735 26.9443C60.735 26.8588 60.7348 26.7548 60.7401 26.672L60.7407 26.6611L60.742 26.6502L60.7421 26.649C60.7553 26.5336 60.7606 26.484 60.7617 26.4509L60.7619 26.4428L60.7625 26.4346C60.768 26.3547 60.7798 26.2726 60.7892 26.2057C60.7993 26.1337 60.808 26.0709 60.8134 26.0069C60.8142 25.9979 60.8149 25.988 60.8158 25.9775C60.3595 26.1546 59.716 26.2965 59.0595 26.4011C58.3924 26.5074 57.6861 26.5793 57.0994 26.6083C56.8517 26.6205 56.6218 26.6252 56.423 26.6213C56.4249 26.6536 56.4234 26.6865 56.4179 26.7198C56.2782 27.5529 56.0944 28.3695 55.882 29.1732C56.0397 28.9795 56.2109 28.7841 56.3923 28.5947C56.7804 28.1896 57.2244 27.8021 57.6904 27.5188C58.1526 27.238 58.6682 27.0405 59.1889 27.0658C59.6498 27.0883 60.2242 27.1325 60.8265 27.2096C60.7693 27.1375 60.735 27.0451 60.735 26.9443ZM62.6082 33.7846C61.6205 33.5183 60.7224 33.423 60.0592 33.7252C60.0553 33.7277 60.0441 33.735 60.0236 33.7499C59.9902 33.7742 59.9452 33.8091 59.889 33.8548C59.7769 33.9458 59.6307 34.071 59.4616 34.2211C59.1238 34.5209 58.7036 34.9118 58.298 35.3098C57.891 35.7091 57.5054 36.1088 57.2333 36.4275C57.1094 36.5726 57.017 36.6917 56.9576 36.7809C57.0008 36.8295 57.0638 36.8846 57.1533 36.9438C57.3147 37.0504 57.526 37.1466 57.7645 37.2318C58.2454 37.4035 58.756 37.5046 59.0711 37.5805C59.447 37.6711 59.8012 37.8001 60.1127 37.9081C60.4341 38.0195 60.7096 38.1084 60.9714 38.147C61.2259 38.1845 61.4539 38.1719 61.6772 38.0869C61.9019 38.0014 62.1518 37.8312 62.4314 37.5053C62.6631 37.2351 62.9724 36.9336 63.2839 36.6266C63.6017 36.3133 63.9316 35.9849 64.2302 35.6417C64.5561 35.2669 64.8183 34.903 64.9878 34.5529C64.6907 34.4639 64.3671 34.3521 64.0373 34.2388C63.5768 34.0805 63.0938 33.9156 62.6082 33.7846ZM61.1494 36.2356C61.3595 36.2356 61.5355 36.2508 61.6758 36.2858C61.7464 36.3034 61.8213 36.3292 61.8912 36.3698C61.9604 36.4101 62.0438 36.4761 62.1014 36.5824C62.1635 36.6973 62.1756 36.823 62.1522 36.9357C62.1308 37.0385 62.0833 37.1172 62.0436 37.1695C61.9661 37.2717 61.8634 37.3455 61.7797 37.395C61.6903 37.4479 61.5903 37.4919 61.492 37.522C61.399 37.5505 61.2794 37.5753 61.1584 37.5653C61.0523 37.5566 60.8049 37.5026 60.7085 37.2305C60.6662 37.1112 60.6746 36.9979 60.6938 36.9138C60.7085 36.8497 60.732 36.7904 60.7585 36.7371C60.7531 36.7097 60.7502 36.6813 60.7502 36.6522C60.7502 36.4221 60.9289 36.2356 61.1494 36.2356ZM58.8714 35.7052C58.9889 35.6672 59.1173 35.659 59.2213 35.6617C59.3286 35.6644 59.4468 35.6797 59.5518 35.7117C59.603 35.7273 59.6687 35.7521 59.7318 35.7933C59.7835 35.827 59.8948 35.9114 59.9404 36.07L59.9446 36.0856L59.9497 36.107C59.9737 36.2151 59.9766 36.3367 59.937 36.4584C59.8939 36.5906 59.8119 36.6879 59.7218 36.7525C59.5569 36.8706 59.3646 36.8836 59.2335 36.8707C59.1055 36.8581 58.9262 36.8101 58.7924 36.6766C58.764 36.6483 58.7346 36.6126 58.709 36.5699C58.5851 36.5042 58.4985 36.373 58.491 36.22L58.4905 36.1986C58.4905 36.0301 58.5708 35.9036 58.655 35.8272C58.7306 35.7585 58.8137 35.7239 58.8714 35.7052ZM59.2887 36.2139C59.2889 36.2088 59.2891 36.2037 59.2891 36.1986C59.2891 36.2037 59.2889 36.2088 59.2887 36.2139ZM58.7678 27.9406C58.5577 27.9934 58.3311 28.0936 58.0924 28.2386C57.704 28.4747 57.3142 28.8109 56.9572 29.1836C56.6013 29.555 56.2874 29.9529 56.0496 30.3025C55.804 30.6636 55.663 30.9391 55.6232 31.07C55.5521 31.3035 55.5415 31.6701 55.6003 32.1552C55.6577 32.6293 55.7752 33.1715 55.9231 33.7305C56.1257 34.4961 56.3792 35.2711 56.5986 35.9188C56.6112 35.9038 56.624 35.8886 56.637 35.8734C56.9321 35.5278 57.3373 35.1087 57.7509 34.7029C58.1658 34.2959 58.5959 33.8957 58.9442 33.5866C59.1181 33.4323 59.2739 33.2986 59.3985 33.1975C59.4606 33.147 59.5176 33.1025 59.5668 33.0666C59.6086 33.0363 59.6679 32.9948 59.7269 32.9675C59.8042 32.9318 59.8829 32.9003 59.9628 32.8725C59.7256 32.0877 59.6063 31.1216 59.4607 30.261C59.3036 29.3326 59.1158 28.5148 58.7678 27.9406ZM62.7143 34.6436C62.7973 34.6461 62.8772 34.6544 62.9507 34.6715C63.0198 34.6875 63.1091 34.717 63.1908 34.7793C63.2802 34.8474 63.3755 34.9694 63.3843 35.1442C63.3922 35.303 63.3236 35.4208 63.2744 35.4842C63.1795 35.6066 63.0442 35.6776 62.9415 35.7172C62.8266 35.7615 62.6916 35.79 62.551 35.7913C62.4585 35.7921 62.2892 35.7733 62.1612 35.6271C62.0147 35.4598 62.0313 35.2577 62.0713 35.1406C62.1249 34.9833 62.2476 34.8589 62.3937 34.7957C62.4695 34.6995 62.5857 34.6396 62.7143 34.6436ZM62.6474 35.5802C62.6507 35.5797 62.654 35.579 62.6572 35.5784C62.6539 35.579 62.6507 35.5797 62.6474 35.5802ZM60.2882 34.2234C60.4033 34.1072 60.5578 34.0451 60.7218 34.0639C60.8749 34.0815 60.993 34.1642 61.0688 34.2492C61.1424 34.3318 61.211 34.4559 61.2195 34.6075C61.2295 34.7854 61.1503 34.9789 60.9653 35.083C60.8736 35.1346 60.7758 35.1533 60.7093 35.1605C60.6385 35.1682 60.551 35.1684 60.465 35.1488C60.4232 35.1393 60.3587 35.12 60.2935 35.0765C60.2272 35.0323 60.1252 34.9375 60.0963 34.7746C60.0678 34.6136 60.129 34.4875 60.1742 34.421C60.1751 34.4197 60.176 34.4184 60.1769 34.417C60.1942 34.3505 60.2276 34.2875 60.2771 34.2348L60.2882 34.2234ZM60.7838 34.9507C60.7822 34.9519 60.7825 34.9518 60.7843 34.9503C60.7841 34.9504 60.784 34.9506 60.7838 34.9507ZM57.1609 32.9096C57.3254 32.9136 57.5489 32.9629 57.6884 33.1698C57.8277 33.3763 57.7908 33.6023 57.7479 33.7312C57.7021 33.8687 57.6219 33.991 57.539 34.0869C57.4546 34.1846 57.3486 34.2769 57.23 34.3433C57.1184 34.4058 56.9511 34.4697 56.7639 34.4362C56.6649 34.4184 56.5678 34.3742 56.484 34.2995C56.4017 34.2262 56.3455 34.1355 56.3085 34.0427C56.2379 33.8657 56.2268 33.6562 56.2448 33.4382C56.2514 33.3591 56.2787 33.2871 56.3206 33.2276C56.3679 33.1315 56.4507 33.0546 56.5574 33.02C56.7862 32.946 56.9883 32.9054 57.1609 32.9096ZM59.6677 27.9298C59.9631 28.5934 60.1218 29.3759 60.2471 30.1162C60.4126 31.0948 60.5219 32.0052 60.7534 32.7153C61.4314 32.6658 62.148 32.8001 62.808 32.9781C63.3225 33.1169 63.8292 33.2902 64.2872 33.4476C64.6241 33.5634 64.9298 33.6687 65.2012 33.7503C65.2017 33.7168 65.2011 33.6835 65.1991 33.6504C65.1631 33.0528 64.9762 32.2826 64.7427 31.4848C64.6271 31.0899 64.5027 30.6967 64.3839 30.3229C64.2659 29.9513 64.1525 29.5959 64.062 29.2853C64.0201 29.1417 63.8697 28.9587 63.5228 28.7676C63.1877 28.583 62.7363 28.4284 62.2207 28.3031C61.3889 28.1009 60.4427 27.9874 59.6677 27.9298ZM56.9929 30.9919C57.1313 30.9374 57.2788 30.9355 57.3867 30.9442C57.5027 30.9536 57.6216 30.9794 57.7248 31.0158C57.7767 31.0341 57.8317 31.0575 57.884 31.0875C57.9305 31.1142 58.0022 31.1614 58.0616 31.2379C58.1425 31.3422 58.2084 31.4801 58.2088 31.6441C58.2093 31.811 58.1419 31.9457 58.0621 32.0393C57.9177 32.2089 57.7083 32.2808 57.5516 32.3027C57.4088 32.3227 57.1528 32.3218 56.9638 32.139C56.8833 32.0612 56.8282 31.9613 56.8048 31.8496C56.7086 31.778 56.6441 31.663 56.6377 31.532L56.6372 31.5105C56.6372 31.3848 56.6771 31.2631 56.7563 31.164C56.83 31.0716 56.9203 31.0205 56.9929 30.9919ZM62.1938 29.6548C62.2726 29.629 62.3554 29.6301 62.4312 29.6546C62.6282 29.6895 62.7846 29.8068 62.8916 29.918C63.0291 30.0611 63.1335 30.2417 63.2039 30.4127C63.2735 30.5816 63.3244 30.7762 63.3267 30.9582C63.3285 31.0953 63.2972 31.4616 62.9519 31.5789C62.4047 31.7649 61.9422 31.414 61.7486 31.03C61.648 30.8303 61.5957 30.584 61.6446 30.3347C61.6586 30.2637 61.6802 30.1952 61.7094 30.1301C61.7116 30.0056 61.767 29.8834 61.8702 29.8033C61.9667 29.7285 62.0758 29.6761 62.1938 29.6548ZM52.0717 23.4042C51.9524 23.5655 51.8508 23.7453 51.7694 23.9392C51.439 24.7262 51.12 25.5998 50.9418 26.3556C50.8525 26.7342 50.8024 27.0676 50.7988 27.3375C50.795 27.6168 50.842 27.7729 50.8916 27.8478C51.4273 28.6559 52.1929 29.3982 53.0143 30.1033C53.4238 30.4548 53.8402 30.7914 54.2451 31.1216C54.3044 31.17 54.3634 31.2182 54.4221 31.2663C54.9236 29.7283 55.3627 28.1783 55.6313 26.5762C55.636 26.548 55.6433 26.521 55.6529 26.4954C55.421 26.3877 55.1566 26.1925 54.8963 25.9795C54.5869 25.7263 54.2371 25.408 53.8797 25.0746C53.2561 24.4928 52.613 23.8689 52.0717 23.4042ZM57.8678 29.093C57.9987 29.0106 58.1692 29.0109 58.3027 29.1081C58.5248 29.27 58.6988 29.5511 58.6235 29.8805C58.5512 30.1963 58.2896 30.3741 58.0336 30.4392C57.8147 30.4948 57.6152 30.4157 57.4841 30.2717C57.369 30.1452 57.3187 29.9863 57.3038 29.8541C57.2888 29.7207 57.3034 29.5584 57.3802 29.4108C57.465 29.2477 57.6266 29.1093 57.8515 29.0937L57.8678 29.093ZM52.78 26.4106C52.9609 26.3112 53.1878 26.3707 53.3009 26.5532C53.318 26.5809 53.3339 26.6085 53.3487 26.636C53.4447 26.7473 53.5311 26.9007 53.5567 27.0641C53.5719 27.1607 53.5786 27.36 53.4276 27.5206C53.2745 27.6834 53.0769 27.682 52.9666 27.6646L52.9549 27.6627C52.8065 27.6675 52.6623 27.6084 52.5565 27.507C52.3834 27.3413 52.3331 27.0972 52.3835 26.8645L52.3869 26.8493C52.423 26.6983 52.5277 26.4681 52.78 26.4106ZM57.5269 21.8484C57.0697 21.7988 56.3229 21.8705 55.481 22.0287C54.6494 22.1849 53.7641 22.4177 53.0464 22.6672C52.916 22.7125 52.7918 22.7719 52.6747 22.8438C53.2199 23.3196 53.8457 23.9253 54.4121 24.4537C54.7676 24.7854 55.1013 25.0885 55.3893 25.3242C55.6901 25.5704 55.8993 25.7075 56.0144 25.7499C56.0149 25.7501 56.0225 25.7527 56.0396 25.7564C56.0572 25.7601 56.0808 25.7642 56.1109 25.7681C56.1717 25.776 56.2502 25.7822 56.3461 25.7859C56.5377 25.7932 56.782 25.79 57.0615 25.7762C57.62 25.7486 58.2987 25.6796 58.939 25.5776C59.5853 25.4746 60.1672 25.3418 60.5447 25.194C60.6329 25.1595 60.6999 25.1278 60.7496 25.1009C60.3642 24.5162 59.8792 23.7677 59.3276 23.1228C58.7082 22.3986 58.0892 21.9094 57.5269 21.8484ZM57.6537 23.7884C57.8376 23.54 58.1314 23.513 58.293 23.5217C58.4612 23.5307 58.6767 23.5866 58.8339 23.7242L58.8489 23.7378L58.8596 23.7481C58.9685 23.8558 59.0246 24.0099 59.002 24.1716C58.9832 24.3053 58.9167 24.3994 58.8788 24.446C58.8012 24.5413 58.7 24.6102 58.6293 24.6444C58.5282 24.6933 58.4211 24.7081 58.3374 24.7097C58.2503 24.7113 58.1489 24.6994 58.0512 24.6627C57.9656 24.6306 57.8175 24.554 57.7363 24.3808C57.7327 24.3782 57.7291 24.3755 57.7256 24.3727C57.5511 24.2321 57.5189 23.9705 57.6537 23.7884ZM55.0676 22.5479C55.1586 22.5514 55.2536 22.5675 55.3406 22.5939C55.3913 22.6093 55.456 22.6332 55.5207 22.6708C55.7219 22.7327 55.8716 22.891 55.9483 23.0283C55.9956 23.1132 56.0544 23.2583 56.0275 23.4294C55.9936 23.6455 55.8428 23.7907 55.6669 23.8436C55.3264 23.9459 55.0149 23.7641 54.8602 23.6525C54.7692 23.5868 54.6907 23.5152 54.6317 23.4524C54.6025 23.4214 54.5736 23.3877 54.5488 23.3537C54.5367 23.3371 54.5212 23.3144 54.5064 23.2877C54.499 23.2741 54.4616 23.2083 54.4507 23.1173C54.4363 22.9953 54.4652 22.87 54.5394 22.7667C54.6063 22.6737 54.6908 22.6248 54.7507 22.599C54.8655 22.5497 54.9855 22.5446 55.0676 22.5479ZM61.5335 26.9443C61.5335 27.086 61.4656 27.211 61.362 27.2863C61.7131 27.3422 62.0651 27.41 62.4019 27.4918C62.948 27.6245 63.4741 27.7988 63.8956 28.0309C64.3052 28.2565 64.6903 28.5778 64.8259 29.043C64.9129 29.3413 65.0226 29.6853 65.1419 30.0609C65.2605 30.4342 65.3877 30.836 65.5064 31.2415C65.7413 32.044 65.9537 32.8951 65.996 33.5982C66.0553 34.5833 65.4452 35.4845 64.8216 36.2014C64.4998 36.5714 64.149 36.9198 63.8323 37.232C63.5093 37.5504 63.2303 37.8231 63.0265 38.0607C62.6803 38.4643 62.3256 38.7268 61.951 38.8694C61.5751 39.0125 61.2092 39.0233 60.8597 38.9718C60.5177 38.9214 60.1792 38.8089 59.8609 38.6986C59.5328 38.5848 59.2217 38.4718 58.8913 38.3922C58.6167 38.326 58.0382 38.2101 57.5059 38.0199C57.2378 37.9241 56.9614 37.8031 56.726 37.6475C56.5511 37.532 56.3759 37.3823 56.2506 37.1884C56.1924 37.1412 56.1459 37.0767 56.1195 36.9988C55.8768 36.2831 55.4591 35.1074 55.1534 33.9522C55.0444 33.5403 54.9481 33.1249 54.8784 32.7287C54.874 32.725 54.8695 32.7212 54.8651 32.7173C54.5334 32.4174 54.1565 32.1068 53.7532 31.7779C53.3524 31.451 52.9261 31.1064 52.5069 30.7465C51.6709 30.0289 50.8353 29.2275 50.2348 28.3216C50.0463 28.0371 49.9956 27.6735 50.0003 27.3257C50.0051 26.9685 50.0695 26.5673 50.1664 26.1566C50.3603 25.334 50.6997 24.4107 51.0379 23.605C51.3694 22.8153 51.9791 22.1601 52.794 21.8769C53.5513 21.6136 54.4739 21.3715 55.3395 21.2089C56.1947 21.0482 57.0344 20.9574 57.6096 21.0199C58.4968 21.1162 59.2933 21.8315 59.9234 22.5682C60.5689 23.3228 61.1283 24.2094 61.5132 24.7886C61.5536 24.8495 61.5862 24.9188 61.6056 24.9946C61.6486 25.0645 61.6721 25.1484 61.6683 25.2377C61.6591 25.4535 61.623 25.9142 61.6089 26.0806C61.6011 26.1719 61.5889 26.2577 61.5793 26.3265C61.5692 26.3983 61.5624 26.4482 61.5592 26.4913C61.5562 26.563 61.5466 26.6465 61.5363 26.7362C61.5337 26.7848 61.5335 26.854 61.5335 26.9443Z" fill="white"/>
<path d="M97.2819 28.3331C97.2819 28.2306 97.2817 28.1058 97.288 28.0064L97.2888 27.9933L97.2903 27.9803L97.2905 27.9788C97.3063 27.8403 97.3126 27.7809 97.3139 27.7411L97.3142 27.7313L97.3149 27.7215C97.3215 27.6256 97.3356 27.5271 97.3469 27.4468C97.359 27.3605 97.3695 27.2851 97.376 27.2083C97.377 27.1975 97.3778 27.1857 97.3789 27.173C96.8313 27.3856 96.0591 27.5558 95.2713 27.6813C94.4708 27.8089 93.6232 27.8951 92.9191 27.9299C92.622 27.9446 92.3461 27.9503 92.1075 27.9456C92.1098 27.9843 92.108 28.0239 92.1013 28.0637C91.9337 29.0635 91.7132 30.0435 91.4583 31.0079C91.6476 30.7755 91.853 30.5409 92.0707 30.3137C92.5364 29.8275 93.0691 29.3625 93.6284 29.0226C94.183 28.6856 94.8018 28.4486 95.4266 28.479C95.9797 28.506 96.6689 28.559 97.3917 28.6515C97.3231 28.5651 97.2819 28.4541 97.2819 28.3331ZM99.5297 36.5416C98.3445 36.2219 97.2667 36.1076 96.4709 36.4702C96.4663 36.4732 96.4528 36.482 96.4282 36.4999C96.3881 36.5291 96.3342 36.571 96.2667 36.6258C96.1322 36.735 95.9568 36.8852 95.7538 37.0653C95.3485 37.425 94.8443 37.8942 94.3575 38.3717C93.8691 38.8509 93.4064 39.3306 93.0798 39.713C92.9312 39.8871 92.8203 40.0301 92.749 40.1371C92.8009 40.1954 92.8764 40.2616 92.9839 40.3326C93.1776 40.4605 93.4311 40.5759 93.7174 40.6781C94.2944 40.8843 94.9072 41.0056 95.2852 41.0967C95.7363 41.2054 96.1613 41.3601 96.5352 41.4897C96.9208 41.6234 97.2514 41.7301 97.5656 41.7764C97.871 41.8214 98.1446 41.8063 98.4126 41.7043C98.6822 41.6016 98.9821 41.3974 99.3175 41.0063C99.5956 40.6822 99.9667 40.3204 100.341 39.9519C100.722 39.5759 101.118 39.1819 101.476 38.77C101.867 38.3203 102.182 37.8836 102.385 37.4635C102.029 37.3567 101.64 37.2226 101.245 37.0865C100.692 36.8966 100.112 36.6987 99.5297 36.5416ZM97.7792 39.4828C98.0313 39.4828 98.2425 39.501 98.4109 39.543C98.4956 39.5641 98.5854 39.5951 98.6693 39.6438C98.7524 39.6921 98.8525 39.7713 98.9215 39.8989C98.9961 40.0368 99.0106 40.1876 98.9826 40.3228C98.9569 40.4462 98.8999 40.5406 98.8522 40.6034C98.7592 40.7261 98.6359 40.8147 98.5356 40.874C98.4283 40.9375 98.3083 40.9903 98.1903 41.0265C98.0787 41.0606 97.9352 41.0904 97.79 41.0784C97.6627 41.0679 97.3658 41.0031 97.2501 40.6766C97.1994 40.5335 97.2094 40.3975 97.2325 40.2966C97.25 40.2197 97.2783 40.1485 97.3101 40.0846C97.3036 40.0516 97.3001 40.0175 97.3001 39.9826C97.3001 39.7066 97.5146 39.4828 97.7792 39.4828ZM95.0456 38.8463C95.1866 38.8007 95.3406 38.7908 95.4655 38.794C95.5943 38.7973 95.7361 38.8157 95.8621 38.8541C95.9235 38.8728 96.0023 38.9025 96.0781 38.952C96.1401 38.9924 96.2737 39.0937 96.3283 39.284L96.3334 39.3027L96.3395 39.3285C96.3683 39.4581 96.3718 39.604 96.3243 39.7501C96.2726 39.9087 96.1742 40.0256 96.0661 40.103C95.8682 40.2448 95.6375 40.2603 95.4801 40.2448C95.3266 40.2298 95.1114 40.1721 94.9508 40.012C94.9167 39.9779 94.8815 39.9351 94.8507 39.8839C94.7021 39.805 94.5981 39.6477 94.5892 39.4641L94.5886 39.4383C94.5886 39.2362 94.6849 39.0844 94.7859 38.9926C94.8766 38.9102 94.9764 38.8686 95.0456 38.8463ZM95.5463 39.4567C95.5466 39.4506 95.5468 39.4445 95.5468 39.4383C95.5468 39.4445 95.5465 39.4506 95.5463 39.4567ZM94.9212 29.5287C94.6691 29.5921 94.3972 29.7123 94.1108 29.8864C93.6447 30.1696 93.1769 30.5731 92.7485 31.0203C92.3215 31.466 91.9448 31.9434 91.6594 32.363C91.3647 32.7963 91.1955 33.1269 91.1477 33.284C91.0624 33.5642 91.0497 34.0042 91.1202 34.5863C91.1891 35.1552 91.3301 35.8059 91.5076 36.4766C91.7508 37.3954 92.0549 38.3254 92.3182 39.1026C92.3334 39.0845 92.3487 39.0663 92.3643 39.0481C92.7184 38.6334 93.2047 38.1304 93.701 37.6436C94.1988 37.1551 94.7149 36.6749 95.1329 36.3039C95.3416 36.1187 95.5285 35.9584 95.6781 35.837C95.7526 35.7765 95.821 35.723 95.8801 35.68C95.9302 35.6435 96.0014 35.5938 96.0722 35.5611C96.1649 35.5182 96.2594 35.4803 96.3553 35.447C96.0706 34.5052 95.9274 33.3459 95.7527 32.3132C95.5642 31.1991 95.3388 30.2177 94.9212 29.5287ZM99.657 37.5723C99.7567 37.5754 99.8526 37.5853 99.9408 37.6058C100.024 37.625 100.131 37.6604 100.229 37.7351C100.336 37.8169 100.451 37.9633 100.461 38.173C100.471 38.3636 100.388 38.505 100.329 38.5811C100.215 38.728 100.053 38.8131 99.9297 38.8606C99.7918 38.9139 99.6299 38.9481 99.4611 38.9496C99.35 38.9506 99.1469 38.928 98.9934 38.7526C98.8176 38.5518 98.8375 38.3092 98.8854 38.1687C98.9498 37.98 99.0971 37.8307 99.2724 37.7549C99.3634 37.6394 99.5027 37.5675 99.657 37.5723ZM99.5767 38.6963C99.5808 38.6956 99.5847 38.6949 99.5886 38.6941C99.5846 38.6948 99.5807 38.6957 99.5767 38.6963ZM96.7457 37.068C96.8838 36.9286 97.0692 36.8541 97.2661 36.8767C97.4498 36.8978 97.5915 36.9971 97.6824 37.099C97.7708 37.1982 97.8531 37.3471 97.8633 37.529C97.8754 37.7425 97.7802 37.9747 97.5583 38.0996C97.4482 38.1616 97.3308 38.184 97.2511 38.1927C97.1661 38.2019 97.0611 38.2021 96.9579 38.1786C96.9078 38.1671 96.8303 38.144 96.7521 38.0918C96.6725 38.0388 96.5501 37.9251 96.5155 37.7295C96.4813 37.5363 96.5547 37.385 96.6089 37.3052C96.61 37.3036 96.6111 37.302 96.6122 37.3005C96.633 37.2206 96.673 37.145 96.7325 37.0818L96.7457 37.068ZM97.3404 37.9409C97.3385 37.9423 97.3389 37.9422 97.3411 37.9404C97.3409 37.9405 97.3407 37.9407 97.3404 37.9409ZM92.9929 35.4915C93.1904 35.4963 93.4586 35.5555 93.626 35.8037C93.7931 36.0516 93.7488 36.3228 93.6974 36.4774C93.6425 36.6425 93.5462 36.7892 93.4467 36.9043C93.3455 37.0215 93.2183 37.1323 93.076 37.212C92.942 37.287 92.7413 37.3637 92.5165 37.3234C92.3977 37.3021 92.2812 37.2491 92.1807 37.1594C92.0819 37.0715 92.0145 36.9626 91.9701 36.8512C91.8854 36.6388 91.8721 36.3874 91.8937 36.1258C91.9015 36.0309 91.9343 35.9446 91.9847 35.8731C92.0414 35.7578 92.1408 35.6655 92.2688 35.624C92.5433 35.5352 92.7859 35.4865 92.9929 35.4915ZM96.0012 29.5158C96.3557 30.3121 96.5461 31.2511 96.6964 32.1395C96.895 33.3137 97.0262 34.4063 97.3039 35.2584C98.1176 35.1989 98.9775 35.3602 99.7696 35.5738C100.387 35.7402 100.995 35.9483 101.545 36.1372C101.949 36.2761 102.316 36.4025 102.641 36.5003C102.642 36.4602 102.641 36.4202 102.639 36.3805C102.596 35.6633 102.371 34.7392 102.091 33.7817C101.952 33.3079 101.803 32.8361 101.661 32.3875C101.519 31.9415 101.383 31.515 101.274 31.1424C101.224 30.9701 101.044 30.7504 100.627 30.5211C100.225 30.2997 99.6834 30.1141 99.0647 29.9637C98.0665 29.7211 96.9312 29.5849 96.0012 29.5158ZM92.7914 33.1902C92.9575 33.1249 93.1345 33.1227 93.264 33.1331C93.4032 33.1443 93.5458 33.1752 93.6697 33.219C93.7319 33.2409 93.798 33.269 93.8607 33.305C93.9165 33.337 94.0025 33.3937 94.0738 33.4855C94.1709 33.6107 94.2499 33.7762 94.2505 33.9729C94.251 34.1732 94.1701 34.3349 94.0744 34.4472C93.9011 34.6507 93.6498 34.737 93.4618 34.7632C93.2904 34.7872 92.9833 34.7862 92.7564 34.5669C92.6599 34.4735 92.5938 34.3535 92.5656 34.2196C92.4502 34.1336 92.3728 33.9956 92.3651 33.8384L92.3646 33.8127C92.3646 33.6618 92.4125 33.5157 92.5074 33.3968C92.596 33.2859 92.7043 33.2246 92.7914 33.1902ZM99.0325 31.5858C99.1271 31.5549 99.2264 31.5561 99.3174 31.5855C99.5538 31.6274 99.7415 31.7682 99.8698 31.9016C100.035 32.0734 100.16 32.2901 100.245 32.4953C100.328 32.698 100.389 32.9314 100.392 33.1499C100.394 33.3143 100.356 33.7539 99.9422 33.8947C99.2856 34.1179 98.7305 33.6968 98.4983 33.236C98.3775 32.9964 98.3148 32.7008 98.3735 32.4017C98.3902 32.3165 98.4162 32.2343 98.4512 32.1561C98.4539 32.0067 98.5203 31.8601 98.6441 31.764C98.7599 31.6742 98.8908 31.6114 99.0325 31.5858ZM86.886 24.0851C86.7428 24.2786 86.6209 24.4943 86.5232 24.727C86.1267 25.6714 85.7439 26.7198 85.53 27.6267C85.4229 28.081 85.3628 28.4811 85.3584 28.805C85.3539 29.1402 85.4103 29.3275 85.4698 29.4173C86.1127 30.3871 87.0314 31.2778 88.017 32.124C88.5084 32.5458 89.0081 32.9496 89.494 33.3459C89.5651 33.404 89.636 33.4619 89.7064 33.5196C90.3082 31.6739 90.8351 29.814 91.1574 27.8915C91.1631 27.8577 91.1719 27.8253 91.1834 27.7945C90.9051 27.6652 90.5878 27.4311 90.2755 27.1755C89.9042 26.8715 89.4844 26.4896 89.0556 26.0896C88.3072 25.3913 87.5355 24.6427 86.886 24.0851ZM93.8412 30.9116C93.9984 30.8128 94.203 30.8131 94.3631 30.9297C94.6297 31.124 94.8385 31.4613 94.7481 31.8566C94.6614 32.2355 94.3474 32.4489 94.0402 32.527C93.7775 32.5938 93.5382 32.4988 93.3809 32.326C93.2428 32.1743 93.1823 31.9836 93.1645 31.8249C93.1465 31.6648 93.164 31.4701 93.2561 31.2929C93.3579 31.0972 93.5518 30.9312 93.8217 30.9125L93.8412 30.9116ZM87.7359 27.6927C87.953 27.5735 88.2253 27.6448 88.361 27.8639C88.3815 27.897 88.4006 27.9302 88.4183 27.9633C88.5335 28.0967 88.6372 28.2808 88.668 28.477C88.6861 28.5928 88.6942 28.832 88.513 29.0248C88.3294 29.2201 88.0922 29.2184 87.9599 29.1975L87.9458 29.1952C87.7677 29.2011 87.5947 29.1301 87.4677 29.0085C87.2599 28.8095 87.1996 28.5166 87.2601 28.2374L87.2642 28.2192C87.3075 28.0379 87.4331 27.7617 87.7359 27.6927ZM93.4322 22.2181C92.8836 22.1585 91.9874 22.2447 90.9771 22.4345C89.9791 22.6219 88.9168 22.9013 88.0555 23.2006C87.8991 23.255 87.75 23.3263 87.6096 23.4126C88.2638 23.9835 89.0147 24.7104 89.6944 25.3445C90.121 25.7425 90.5215 26.1062 90.867 26.389C91.228 26.6845 91.4791 26.849 91.6172 26.8999C91.6178 26.9001 91.6269 26.9032 91.6474 26.9076C91.6686 26.9122 91.6968 26.917 91.733 26.9217C91.8059 26.9312 91.9001 26.9386 92.0152 26.943C92.2451 26.9519 92.5383 26.948 92.8737 26.9314C93.5439 26.8983 94.3584 26.8156 95.1267 26.6931C95.9023 26.5696 96.6005 26.4102 97.0536 26.2328C97.1594 26.1914 97.2398 26.1534 97.2994 26.121C96.8369 25.4195 96.2549 24.5212 95.593 23.7474C94.8497 22.8784 94.1069 22.2913 93.4322 22.2181ZM93.5843 24.5461C93.805 24.248 94.1575 24.2156 94.3516 24.226C94.5533 24.2369 94.8119 24.3039 95.0006 24.4691L95.0186 24.4854L95.0314 24.4977C95.1621 24.627 95.2294 24.8119 95.2023 25.0059C95.1798 25.1664 95.0999 25.2793 95.0544 25.3352C94.9613 25.4496 94.8399 25.5322 94.755 25.5733C94.6337 25.632 94.5053 25.6498 94.4048 25.6516C94.3003 25.6536 94.1786 25.6392 94.0613 25.5952C93.9586 25.5567 93.7809 25.4648 93.6834 25.257C93.6792 25.2538 93.6748 25.2506 93.6706 25.2472C93.4612 25.0785 93.4226 24.7646 93.5843 24.5461ZM90.481 23.0574C90.5902 23.0617 90.7042 23.081 90.8086 23.1127C90.8695 23.1312 90.9471 23.1599 91.0248 23.205C91.2662 23.2792 91.4459 23.4692 91.5378 23.634C91.5947 23.7359 91.6651 23.91 91.6329 24.1153C91.5923 24.3746 91.4113 24.5488 91.2002 24.6123C90.7916 24.7351 90.4178 24.5169 90.2322 24.383C90.1229 24.3042 90.0287 24.2182 89.9579 24.1429C89.9229 24.1057 89.8882 24.0653 89.8584 24.0244C89.8439 24.0045 89.8253 23.9773 89.8076 23.9452C89.7987 23.929 89.7538 23.85 89.7408 23.7407C89.7234 23.5944 89.7581 23.4441 89.8472 23.3201C89.9275 23.2084 90.0289 23.1497 90.1007 23.1189C90.2385 23.0596 90.3824 23.0536 90.481 23.0574ZM98.2401 28.3331C98.2401 28.5032 98.1586 28.6533 98.0343 28.7435C98.4556 28.8106 98.8781 28.892 99.2822 28.9902C99.9375 29.1494 100.569 29.3586 101.075 29.6371C101.566 29.9078 102.028 30.2933 102.191 30.8516C102.295 31.2096 102.427 31.6223 102.57 32.073C102.713 32.5211 102.865 33.0033 103.008 33.4898C103.289 34.4529 103.544 35.4742 103.595 36.3179C103.666 37.5 102.934 38.5814 102.186 39.4417C101.8 39.8856 101.379 40.3038 100.999 40.6785C100.611 41.0605 100.276 41.3877 100.032 41.6729C99.6163 42.1571 99.1906 42.4722 98.741 42.6433C98.29 42.815 97.8509 42.828 97.4316 42.7662C97.0211 42.7057 96.6149 42.5707 96.233 42.4383C95.8393 42.3018 95.466 42.1662 95.0695 42.0706C94.7399 41.9912 94.0457 41.8521 93.4069 41.6239C93.0852 41.509 92.7536 41.3637 92.4711 41.1771C92.2613 41.0384 92.051 40.8588 91.9006 40.6261C91.8307 40.5695 91.775 40.4921 91.7433 40.3985C91.4521 39.5397 90.9508 38.1289 90.5839 36.7426C90.4531 36.2483 90.3376 35.75 90.254 35.2745C90.2487 35.27 90.2433 35.2655 90.2381 35.2608C89.84 34.9009 89.3877 34.5282 88.9038 34.1335C88.4228 33.7412 87.9112 33.3277 87.4081 32.8958C86.405 32.0347 85.4023 31.073 84.6817 29.9859C84.4554 29.6446 84.3946 29.2082 84.4003 28.7909C84.406 28.3622 84.4833 27.8807 84.5995 27.388C84.8323 26.4008 85.2396 25.2929 85.6454 24.326C86.0432 23.3784 86.7748 22.5921 87.7526 22.2523C88.6615 21.9364 89.7686 21.6458 90.8072 21.4507C91.8335 21.2579 92.8411 21.1489 93.5314 21.2238C94.5961 21.3394 95.5519 22.1978 96.308 23.0818C97.0826 23.9874 97.7539 25.0513 98.2157 25.7464C98.2642 25.8194 98.3034 25.9026 98.3266 25.9935C98.3782 26.0774 98.4065 26.1781 98.4019 26.2853C98.3909 26.5442 98.3475 27.0971 98.3305 27.2968C98.3212 27.4063 98.3066 27.5093 98.295 27.5918C98.2829 27.6779 98.2748 27.7379 98.2709 27.7896C98.2673 27.8756 98.2558 27.9759 98.2435 28.0835C98.2404 28.1418 98.2401 28.2248 98.2401 28.3331Z" fill="white"/>
<path d="M137.103 30.4164C137.103 30.2882 137.102 30.1322 137.11 30.008L137.111 29.9916L137.113 29.9754L137.113 29.9735C137.133 29.8003 137.141 29.726 137.142 29.6764L137.143 29.6641L137.144 29.6519C137.152 29.532 137.17 29.4088 137.184 29.3085C137.199 29.2006 137.212 29.1063 137.22 29.0104C137.221 28.9968 137.222 28.9821 137.224 28.9662C136.539 29.232 135.574 29.4447 134.589 29.6016C133.589 29.7611 132.529 29.8689 131.649 29.9124C131.278 29.9308 130.933 29.9379 130.634 29.932C130.637 29.9803 130.635 30.0298 130.627 30.0796C130.417 31.3293 130.142 32.5543 129.823 33.7598C130.06 33.4693 130.316 33.1761 130.589 32.8921C131.171 32.2844 131.837 31.7031 132.536 31.2782C133.229 30.8569 134.002 30.5607 134.783 30.5987C135.475 30.6324 136.336 30.6988 137.24 30.8144C137.154 30.7063 137.103 30.5676 137.103 30.4164ZM139.912 40.6769C138.431 40.2774 137.084 40.1345 136.089 40.5877C136.083 40.5915 136.066 40.6025 136.035 40.6249C135.985 40.6613 135.918 40.7137 135.833 40.7822C135.665 40.9187 135.446 41.1065 135.192 41.3317C134.686 41.7813 134.055 42.3677 133.447 42.9647C132.836 43.5636 132.258 44.1633 131.85 44.6412C131.664 44.8588 131.525 45.0376 131.436 45.1713C131.501 45.2443 131.596 45.3269 131.73 45.4157C131.972 45.5757 132.289 45.7199 132.647 45.8477C133.368 46.1053 134.134 46.257 134.607 46.3708C135.171 46.5067 135.702 46.7001 136.169 46.8621C136.651 47.0292 137.064 47.1626 137.457 47.2205C137.839 47.2767 138.181 47.2578 138.516 47.1303C138.853 47.002 139.228 46.7468 139.647 46.2579C139.995 45.8527 140.459 45.4005 140.926 44.9399C141.403 44.4699 141.897 43.9774 142.345 43.4625C142.834 42.9004 143.227 42.3545 143.482 41.8294C143.036 41.6959 142.551 41.5282 142.056 41.3582C141.365 41.1207 140.641 40.8734 139.912 40.6769ZM137.724 44.3535C138.039 44.3535 138.303 44.3762 138.514 44.4287C138.62 44.4551 138.732 44.4938 138.837 44.5547C138.941 44.6151 139.066 44.7142 139.152 44.8736C139.245 45.046 139.263 45.2345 139.228 45.4035C139.196 45.5578 139.125 45.6758 139.065 45.7543C138.949 45.9076 138.795 46.0183 138.67 46.0925C138.536 46.1719 138.386 46.2379 138.238 46.2831C138.099 46.3257 137.919 46.363 137.738 46.348C137.579 46.3349 137.207 46.2539 137.063 45.8457C136.999 45.6668 137.012 45.4969 137.041 45.3707C137.063 45.2746 137.098 45.1856 137.138 45.1057C137.13 45.0645 137.125 45.0219 137.125 44.9782C137.125 44.6332 137.393 44.3535 137.724 44.3535ZM134.307 43.5578C134.483 43.5008 134.676 43.4885 134.832 43.4925C134.993 43.4966 135.17 43.5196 135.328 43.5676C135.405 43.591 135.503 43.6282 135.598 43.6899C135.675 43.7405 135.842 43.8671 135.911 44.105L135.917 44.1284L135.924 44.1606C135.961 44.3227 135.965 44.505 135.905 44.6876C135.841 44.8859 135.718 45.0319 135.583 45.1288C135.335 45.3059 135.047 45.3254 134.85 45.306C134.658 45.2872 134.389 45.2151 134.189 45.015C134.146 44.9724 134.102 44.9189 134.064 44.8549C133.878 44.7562 133.748 44.5596 133.737 44.3301L133.736 44.2979C133.736 44.0452 133.856 43.8554 133.982 43.7407C134.096 43.6377 134.221 43.5858 134.307 43.5578ZM134.933 44.3209C134.933 44.3132 134.934 44.3056 134.934 44.2979C134.934 44.3056 134.933 44.3132 134.933 44.3209ZM134.152 31.9108C133.837 31.9901 133.497 32.1403 133.139 32.3579C132.556 32.712 131.971 33.2164 131.436 33.7754C130.902 34.3325 130.431 34.9293 130.074 35.4537C129.706 35.9953 129.495 36.4086 129.435 36.605C129.328 36.9553 129.312 37.5052 129.4 38.2328C129.487 38.944 129.663 39.7573 129.885 40.5957C130.189 41.7442 130.569 42.9067 130.898 43.8782C130.917 43.8556 130.936 43.8329 130.955 43.8101C131.398 43.2918 132.006 42.663 132.626 42.0544C133.249 41.4439 133.894 40.8436 134.416 40.3799C134.677 40.1484 134.911 39.948 135.098 39.7962C135.191 39.7206 135.276 39.6537 135.35 39.6C135.413 39.5544 135.502 39.4922 135.59 39.4513C135.706 39.3977 135.824 39.3504 135.944 39.3088C135.588 38.1315 135.409 36.6824 135.191 35.3915C134.955 33.9989 134.674 32.7722 134.152 31.9108ZM140.071 41.9653C140.196 41.9692 140.316 41.9816 140.426 42.0072C140.53 42.0312 140.664 42.0755 140.786 42.1689C140.92 42.2711 141.063 42.4542 141.076 42.7163C141.088 42.9545 140.985 43.1312 140.912 43.2264C140.769 43.41 140.566 43.5164 140.412 43.5758C140.24 43.6423 140.037 43.6851 139.826 43.6869C139.688 43.6882 139.434 43.6599 139.242 43.4407C139.022 43.1897 139.047 42.8865 139.107 42.7109C139.187 42.475 139.371 42.2883 139.591 42.1936C139.704 42.0492 139.879 41.9594 140.071 41.9653ZM139.971 43.3703C139.976 43.3695 139.981 43.3686 139.986 43.3676C139.981 43.3685 139.976 43.3696 139.971 43.3703ZM136.432 41.335C136.605 41.1608 136.837 41.0676 137.083 41.0959C137.312 41.1223 137.49 41.2463 137.603 41.3738C137.714 41.4977 137.816 41.6838 137.829 41.9113C137.844 42.1781 137.725 42.4684 137.448 42.6245C137.31 42.7019 137.164 42.73 137.064 42.7408C136.958 42.7524 136.827 42.7526 136.697 42.7232C136.635 42.7089 136.538 42.68 136.44 42.6147C136.341 42.5484 136.188 42.4063 136.145 42.1619C136.102 41.9203 136.194 41.7313 136.261 41.6315C136.263 41.6295 136.264 41.6275 136.265 41.6256C136.291 41.5257 136.341 41.4313 136.416 41.3522L136.432 41.335ZM137.176 42.4261C137.173 42.4279 137.174 42.4277 137.176 42.4254C137.176 42.4256 137.176 42.4259 137.176 42.4261ZM131.741 39.3643C131.988 39.3703 132.323 39.4444 132.533 39.7547C132.742 40.0645 132.686 40.4034 132.622 40.5968C132.553 40.8031 132.433 40.9865 132.309 41.1304C132.182 41.2769 132.023 41.4154 131.845 41.515C131.678 41.6087 131.427 41.7046 131.146 41.6542C130.997 41.6276 130.852 41.5613 130.726 41.4493C130.603 41.3393 130.518 41.2033 130.463 41.064C130.357 40.7985 130.34 40.4842 130.367 40.1572C130.377 40.0387 130.418 39.9307 130.481 39.8413C130.552 39.6973 130.676 39.5818 130.836 39.53C131.179 39.4189 131.482 39.3581 131.741 39.3643ZM135.502 31.8947C135.945 32.8901 136.183 34.0639 136.371 35.1744C136.619 36.6422 136.783 38.0078 137.13 39.0729C138.147 38.9987 139.222 39.2002 140.212 39.4672C140.984 39.6753 141.744 39.9353 142.431 40.1714C142.936 40.3451 143.395 40.5031 143.802 40.6254C143.803 40.5752 143.802 40.5253 143.799 40.4756C143.745 39.5792 143.464 38.424 143.114 37.2271C142.941 36.6349 142.754 36.0451 142.576 35.4843C142.399 34.9269 142.229 34.3938 142.093 33.928C142.03 33.7126 141.805 33.438 141.284 33.1514C140.782 32.8746 140.104 32.6426 139.331 32.4546C138.083 32.1514 136.664 31.9811 135.502 31.8947ZM131.489 36.4878C131.697 36.4061 131.918 36.4033 132.08 36.4164C132.254 36.4304 132.432 36.469 132.587 36.5237C132.665 36.5511 132.748 36.5863 132.826 36.6312C132.896 36.6713 133.003 36.7421 133.092 36.8569C133.214 37.0133 133.313 37.2202 133.313 37.4661C133.314 37.7164 133.213 37.9186 133.093 38.059C132.877 38.3134 132.562 38.4212 132.327 38.454C132.113 38.484 131.729 38.4827 131.446 38.2086C131.325 38.0918 131.242 37.9419 131.207 37.7744C131.063 37.667 130.966 37.4945 130.957 37.298L130.956 37.2658C130.956 37.0772 131.016 36.8946 131.134 36.7459C131.245 36.6074 131.38 36.5307 131.489 36.4878ZM139.291 34.4823C139.409 34.4435 139.533 34.4451 139.647 34.4819C139.942 34.5342 140.177 34.7102 140.337 34.877C140.544 35.0917 140.7 35.3626 140.806 35.6191C140.91 35.8724 140.987 36.1643 140.99 36.4374C140.993 36.6429 140.946 37.1924 140.428 37.3684C139.607 37.6474 138.913 37.121 138.623 36.545C138.472 36.2455 138.394 35.876 138.467 35.5021C138.488 35.3956 138.52 35.2929 138.564 35.1952C138.567 35.0084 138.651 34.8252 138.805 34.705C138.95 34.5927 139.114 34.5142 139.291 34.4823ZM124.108 25.1063C123.929 25.3483 123.776 25.6179 123.654 25.9087C123.159 27.0893 122.68 28.3997 122.413 29.5334C122.279 30.1013 122.204 30.6014 122.198 31.0062C122.192 31.4252 122.263 31.6593 122.337 31.7717C123.141 32.9839 124.289 34.0972 125.521 35.155C126.136 35.6822 126.76 36.187 127.368 36.6824C127.457 36.7549 127.545 36.8274 127.633 36.8995C128.385 34.5924 129.044 32.2675 129.447 29.8643C129.454 29.8221 129.465 29.7816 129.479 29.7431C129.132 29.5815 128.735 29.2888 128.345 28.9693C127.88 28.5894 127.356 28.112 126.82 27.612C125.884 26.7392 124.92 25.8033 124.108 25.1063ZM132.802 33.6395C132.998 33.5159 133.254 33.5163 133.454 33.6622C133.787 33.9049 134.048 34.3267 133.935 34.8208C133.827 35.2944 133.434 35.5611 133.05 35.6587C132.722 35.7423 132.423 35.6235 132.226 35.4075C132.054 35.2179 131.978 34.9795 131.956 34.7811C131.933 34.581 131.955 34.3376 132.07 34.1161C132.198 33.8715 132.44 33.664 132.777 33.6406L132.802 33.6395ZM125.17 29.6158C125.441 29.4668 125.782 29.556 125.951 29.8299C125.977 29.8713 126.001 29.9127 126.023 29.9541C126.167 30.1209 126.297 30.351 126.335 30.5962C126.358 30.741 126.368 31.04 126.141 31.281C125.912 31.5252 125.615 31.523 125.45 31.4968L125.432 31.494C125.21 31.5013 124.993 31.4126 124.835 31.2606C124.575 31.0119 124.5 30.6458 124.575 30.2968L124.58 30.274C124.635 30.0474 124.792 29.7022 125.17 29.6158ZM132.29 22.7726C131.605 22.6981 130.484 22.8058 129.221 23.0431C127.974 23.2774 126.646 23.6266 125.57 24.0008C125.374 24.0688 125.188 24.1579 125.012 24.2657C125.83 24.9794 126.769 25.888 127.618 26.6806C128.151 27.1781 128.652 27.6327 129.084 27.9863C129.535 28.3556 129.849 28.5612 130.022 28.6249C130.022 28.6251 130.034 28.629 130.059 28.6345C130.086 28.6402 130.121 28.6463 130.166 28.6522C130.257 28.664 130.375 28.6733 130.519 28.6788C130.806 28.6898 131.173 28.685 131.592 28.6643C132.43 28.6228 133.448 28.5194 134.408 28.3664C135.378 28.2119 136.251 28.0127 136.817 27.791C136.949 27.7392 137.05 27.6917 137.124 27.6513C136.546 26.7743 135.819 25.6515 134.991 24.6842C134.062 23.598 133.134 22.8642 132.29 22.7726ZM132.48 25.6827C132.756 25.31 133.197 25.2695 133.44 25.2825C133.692 25.2961 134.015 25.3799 134.251 25.5864L134.273 25.6067L134.289 25.6221C134.453 25.7837 134.537 26.0149 134.503 26.2574C134.475 26.4579 134.375 26.5992 134.318 26.669C134.202 26.812 134.05 26.9153 133.944 26.9666C133.792 27.04 133.632 27.0622 133.506 27.0645C133.375 27.067 133.223 27.049 133.077 26.994C132.948 26.9459 132.726 26.831 132.604 26.5713C132.599 26.5672 132.594 26.5632 132.588 26.559C132.327 26.3481 132.278 25.9557 132.48 25.6827ZM128.601 23.8218C128.738 23.8271 128.88 23.8513 129.011 23.8909C129.087 23.914 129.184 23.9498 129.281 24.0062C129.583 24.099 129.807 24.3365 129.922 24.5425C129.993 24.6698 130.082 24.8874 130.041 25.1441C129.99 25.4682 129.764 25.686 129.5 25.7654C128.99 25.9189 128.522 25.6461 128.29 25.4787C128.154 25.3802 128.036 25.2728 127.947 25.1786C127.904 25.1321 127.86 25.0816 127.823 25.0305C127.805 25.0056 127.782 24.9716 127.76 24.9315C127.748 24.9112 127.692 24.8125 127.676 24.6759C127.654 24.4929 127.698 24.3051 127.809 24.1501C127.909 24.0105 128.036 23.9371 128.126 23.8986C128.298 23.8245 128.478 23.8169 128.601 23.8218ZM138.3 30.4164C138.3 30.629 138.198 30.8166 138.043 30.9294C138.57 31.0133 139.098 31.1149 139.603 31.2377C140.422 31.4368 141.211 31.6982 141.843 32.0463C142.458 32.3847 143.035 32.8666 143.239 33.5645C143.369 34.012 143.534 34.5279 143.713 35.0913C143.891 35.6513 144.082 36.2541 144.26 36.8622C144.612 38.0661 144.931 39.3427 144.994 40.3973C145.083 41.875 144.168 43.2267 143.232 44.3022C142.75 44.857 142.224 45.3798 141.748 45.848C141.264 46.3257 140.845 46.7347 140.54 47.0911C140.021 47.6964 139.488 48.0902 138.926 48.3041C138.363 48.5187 137.814 48.535 137.29 48.4578C136.776 48.3822 136.269 48.2134 135.791 48.0479C135.299 47.8773 134.833 47.7077 134.337 47.5883C133.925 47.489 133.057 47.3151 132.259 47.0299C131.857 46.8862 131.442 46.7046 131.089 46.4713C130.827 46.298 130.564 46.0735 130.376 45.7827C130.289 45.7118 130.219 45.6151 130.179 45.4982C129.815 44.4246 129.189 42.6611 128.73 40.9283C128.567 40.3104 128.422 39.6874 128.318 39.0931C128.311 39.0875 128.304 39.0818 128.298 39.0759C127.8 38.6261 127.235 38.1602 126.63 37.6668C126.029 37.1765 125.389 36.6596 124.76 36.1198C123.506 35.0433 122.253 33.8412 121.352 32.4824C121.069 32.0557 120.993 31.5103 121 30.9886C121.008 30.4527 121.104 29.8509 121.25 29.2349C121.541 28.001 122.05 26.616 122.557 25.4075C123.054 24.223 123.969 23.2401 125.191 22.8153C126.327 22.4205 127.711 22.0572 129.009 21.8133C130.292 21.5724 131.552 21.4361 132.414 21.5298C133.745 21.6743 134.94 22.7473 135.885 23.8523C136.853 24.9842 137.692 26.3141 138.27 27.1829C138.33 27.2742 138.379 27.3783 138.408 27.4919C138.473 27.5968 138.508 27.7226 138.503 27.8566C138.489 28.1802 138.435 28.8713 138.413 29.121C138.402 29.2579 138.383 29.3866 138.369 29.4897C138.354 29.5974 138.344 29.6723 138.339 29.737C138.334 29.8445 138.32 29.9698 138.305 30.1043C138.301 30.1772 138.3 30.2809 138.3 30.4164Z" fill="white"/>
</svg>
