<svg width="24" height="24" viewBox="0 0 24 24" fill="none" xmlns="http://www.w3.org/2000/svg">
<path d="M18 5.5623C18 5.33936 17.9253 5.1228 17.7881 4.94707C17.6508 4.77132 17.4585 4.64665 17.2422 4.59258L13.2422 3.59258C13.095 3.55581 12.9414 3.55238 12.793 3.58379C12.6444 3.61528 12.5045 3.68077 12.3848 3.77422C12.2651 3.86765 12.1682 3.98741 12.1016 4.12383C12.0353 4.25967 12.0002 4.41013 12 4.5623V20.7186L18 19.2186V5.5623ZM14.0098 10.9998C14.562 10.9998 15.0097 11.4476 15.0098 11.9998C15.0098 12.5521 14.5621 12.9998 14.0098 12.9998H14C13.4477 12.9998 13 12.5521 13 11.9998C13.0001 11.4476 13.4478 10.9998 14 10.9998H14.0098ZM7 18.9998H10V4.9998H8C7.73483 4.9998 7.4805 5.1053 7.29297 5.29277C7.10548 5.48026 7.00005 5.73466 7 5.9998V18.9998ZM20 18.9998H22C22.5522 18.9998 22.9999 19.4476 23 19.9998C23 20.5521 22.5523 20.9998 22 20.9998H19.125L12.4844 22.659C12.1896 22.7325 11.8811 22.7377 11.584 22.6746C11.287 22.6114 11.0078 22.4816 10.7686 22.2947C10.5293 22.1078 10.3353 21.8684 10.2021 21.5955C10.1104 21.4073 10.0518 21.206 10.0225 20.9998H2C1.44772 20.9998 1 20.5521 1 19.9998C1.00011 19.4476 1.44778 18.9998 2 18.9998H5V5.9998C5.00005 5.20423 5.31634 4.44127 5.87891 3.87871C6.44151 3.31616 7.2044 2.9998 8 2.9998H10.4404C10.6282 2.69228 10.869 2.41966 11.1543 2.19707C11.5135 1.91675 11.9322 1.72223 12.3779 1.62773C12.8238 1.53325 13.2854 1.54163 13.7275 1.65215L17.7275 2.65215C18.3764 2.81437 18.9525 3.18851 19.3643 3.71562C19.776 4.24288 19.9999 4.89332 20 5.5623V18.9998Z" fill="#F6EBE1"/>
</svg>
